<svg xmlns="http://www.w3.org/2000/svg" viewBox="0 0 56 56" fill="none">
  <!-- Shield Background -->
  <g>
    <!-- Outer Shield -->
    <path d="M28 4L8 10v12c0 12 8.5 23 20 26 11.5-3 20-14 20-26V10L28 4z" 
          fill="url(#shieldGradient)" 
          stroke="url(#shieldStroke)" 
          stroke-width="0.8"/>
    
    <!-- Inner Shield Highlight -->
    <path d="M28 7L11 12v10c0 10 7 19 17 22 10-3 17-12 17-22V12L28 7z" 
          fill="url(#innerShield)" 
          opacity="0.9"/>
    
    <!-- Shield Symbol - Letter X (Bold and Centered) -->
    <g transform="translate(28, 26)">
      <!-- X Shape - Bold and Prominent -->
      <path d="M-9 -11 L-4 -11 L0 -5 L4 -11 L9 -11 L3 -1 L9 9 L4 9 L0 3 L-4 9 L-9 9 L-3 -1 Z" 
            fill="white" 
            opacity="0.95"
            stroke="white"
            stroke-width="0.8"
            stroke-linejoin="round"/>
      
      <!-- X Glow Effect -->
      <path d="M-9 -11 L-4 -11 L0 -5 L4 -11 L9 -11 L3 -1 L9 9 L4 9 L0 3 L-4 9 L-9 9 L-3 -1 Z" 
            fill="none" 
            stroke="white"
            stroke-width="1.5"
            opacity="0.4"
            filter="url(#glow)"/>
    </g>
  </g>
  
  <!-- Gradients and Filters -->
  <defs>
    <!-- Shield Gradient - Verde Esmeralda Sofisticado -->
    <linearGradient id="shieldGradient" x1="28" y1="4" x2="28" y2="48" gradientUnits="userSpaceOnUse">
      <stop offset="0%" stop-color="#14b8a6"/> <!-- Teal 500 -->
      <stop offset="50%" stop-color="#0d9488"/> <!-- Teal 600 -->
      <stop offset="100%" stop-color="#0f766e"/> <!-- Teal 700 -->
    </linearGradient>
    
    <!-- Shield Stroke -->
    <linearGradient id="shieldStroke" x1="28" y1="4" x2="28" y2="48" gradientUnits="userSpaceOnUse">
      <stop offset="0%" stop-color="#5eead4" stop-opacity="0.6"/>
      <stop offset="100%" stop-color="#0f766e" stop-opacity="0.9"/>
    </linearGradient>
    
    <!-- Inner Shield -->
    <linearGradient id="innerShield" x1="28" y1="7" x2="28" y2="44" gradientUnits="userSpaceOnUse">
      <stop offset="0%" stop-color="#2dd4bf"/> <!-- Teal 400 -->
      <stop offset="100%" stop-color="#0d9488"/> <!-- Teal 600 -->
    </linearGradient>
    
    <!-- Glow Filter -->
    <filter id="glow">
      <feGaussianBlur stdDeviation="2.5" result="coloredBlur"/>
      <feMerge>
        <feMergeNode in="coloredBlur"/>
        <feMergeNode in="SourceGraphic"/>
      </feMerge>
    </filter>
  </defs>
</svg>
